<?xml version="1.0" standalone="no"?>
<!DOCTYPE svg PUBLIC "-//W3C//DTD SVG 20010904//EN"
 "http://www.w3.org/TR/2001/REC-SVG-20010904/DTD/svg10.dtd">
<svg version="1.0" xmlns="http://www.w3.org/2000/svg"
 width="500.000000pt" height="500.000000pt" viewBox="0 0 500.000000 500.000000"
 preserveAspectRatio="xMidYMid meet">
<metadata>
Created by potrace 1.14, written by Peter Selinger 2001-2017
</metadata>
<g transform="translate(0.000000,500.000000) scale(0.100000,-0.100000)"
fill="#000000" stroke="none">
<path d="M0 2500 l0 -2500 2500 0 2500 0 0 2500 0 2500 -2500 0 -2500 0 0
-2500z m2344 1335 c38 -8 71 -17 74 -19 3 -4 -86 -189 -102 -213 -1 -1 -30 5
-66 12 -36 8 -80 14 -99 15 -28 0 -32 3 -26 18 10 21 43 138 50 175 5 25 9 27
53 27 26 0 78 -7 116 -15z m303 -203 c-10 -15 -33 -57 -50 -94 -33 -69 -45
-79 -67 -53 -9 11 -5 28 23 87 20 40 45 84 58 96 20 22 23 22 37 8 15 -15 15
-18 -1 -44z m-735 15 c-6 -7 -27 -19 -47 -26 -32 -11 -39 -11 -53 3 -14 14
-13 16 9 25 13 5 41 10 63 10 30 1 36 -2 28 -12z m-109 -54 c23 -25 43 -49 45
-53 4 -10 -61 -30 -96 -30 -27 0 -73 22 -91 44 -22 26 -26 19 -23 -39 3 -39
-1 -63 -12 -80 -9 -14 -13 -25 -8 -25 17 0 43 38 48 72 l6 34 34 -15 c19 -9
33 -24 34 -33 0 -15 7 -17 44 -12 43 6 86 -7 86 -26 0 -6 -11 -10 -26 -10 -14
0 -55 -16 -91 -35 -36 -19 -79 -35 -94 -35 -29 0 -56 -31 -44 -50 9 -14 1 -13
-57 14 -76 34 -93 49 -81 70 5 10 13 16 18 14 4 -1 13 18 19 43 27 104 100
190 168 200 61 8 74 3 121 -48z m493 -27 c71 -23 155 -66 129 -66 -6 0 -15 4
-21 10 -5 5 -31 16 -57 24 -45 13 -48 13 -58 -6 -6 -11 -8 -22 -6 -25 3 -2 37
-9 75 -14 39 -5 90 -16 114 -24 24 -8 32 -12 18 -9 -14 3 -115 9 -225 15 -200
10 -350 25 -273 28 27 1 42 8 61 31 25 29 29 30 109 31 78 2 80 2 33 9 -27 5
-83 9 -122 9 -40 1 -73 5 -73 10 0 27 184 12 296 -23z m-473 -83 c-7 -2 -21
-2 -30 0 -10 3 -4 5 12 5 17 0 24 -2 18 -5z m250 -50 l78 -6 -21 -22 c-27 -29
-25 -35 9 -22 36 13 58 5 79 -33 9 -16 21 -30 25 -30 12 0 -2 41 -24 73 l-20
27 31 0 c51 0 181 -30 225 -52 76 -38 98 -91 43 -103 -37 -8 -70 -33 -62 -46
3 -5 14 -5 24 1 10 5 32 10 47 10 94 0 54 -118 -45 -133 -40 -7 -53 -19 -32
-32 5 -3 -15 -31 -44 -61 -61 -61 -117 -142 -147 -210 -22 -48 -34 -51 -88
-17 -21 13 -22 17 -8 30 12 13 21 13 46 5 26 -9 31 -8 31 4 0 9 -9 18 -20 21
-25 7 -25 11 2 40 l22 23 -35 -17 c-44 -23 -168 -23 -220 -1 -36 16 -109 74
-109 87 0 7 92 32 120 32 8 0 41 -9 72 -20 89 -33 162 -9 216 69 29 43 28 52
-4 40 -14 -6 -45 -10 -70 -10 -40 0 -49 5 -93 50 -27 28 -56 50 -65 50 -22 0
-20 -17 4 -25 10 -3 29 -22 40 -41 27 -43 72 -67 115 -62 39 4 37 -15 -4 -36
-66 -33 -151 -27 -204 14 -25 20 -27 20 -53 4 -58 -38 -172 -10 -187 46 -4 17
0 20 30 20 38 0 109 34 117 57 7 17 -14 16 -38 -2 -34 -26 -46 -19 -46 28 0
79 41 202 70 210 10 3 28 -2 39 -10 19 -12 21 -12 21 1 0 9 -9 21 -20 28 -38
24 -25 41 28 34 26 -3 82 -9 125 -13z m465 -33 c73 -26 106 -58 106 -104 0
-33 -26 -76 -46 -76 -22 0 -39 31 -33 59 12 58 -36 99 -157 132 l-73 20 73 -6
c40 -3 99 -14 130 -25z m-1087 -46 c30 -32 82 -59 143 -75 41 -10 46 -14 40
-33 -3 -11 -10 -25 -14 -30 -11 -12 -118 21 -167 52 -40 25 -43 30 -43 70 0
49 7 52 41 16z m1653 -76 c8 -13 17 -34 21 -48 6 -25 5 -25 -57 -25 -35 0 -84
-4 -110 -8 -81 -14 -60 21 48 78 58 31 79 31 98 3z m-234 -93 c0 -9 -9 -15
-21 -15 -41 0 -89 -31 -89 -56 0 -30 11 -30 36 -3 20 22 66 49 84 49 17 0 11
-24 -9 -37 -24 -15 -43 -77 -32 -106 7 -19 8 -18 14 9 9 40 34 71 48 57 7 -7
6 -18 -2 -36 -17 -37 -6 -65 50 -135 27 -34 52 -70 56 -81 7 -23 -18 -55 -52
-65 -19 -6 -21 -4 -14 26 8 38 4 68 -10 68 -5 0 -9 -17 -9 -37 -1 -65 -14 -73
-124 -73 -96 0 -97 0 -91 -22 4 -13 9 -31 12 -41 5 -20 41 -37 77 -37 12 0 30
-6 40 -13 26 -19 13 -52 -36 -88 -36 -25 -50 -29 -108 -29 -85 0 -148 22 -203
70 -66 58 -91 124 -84 220 12 174 133 306 337 367 90 26 130 29 130 8z m-1476
-17 c2 -7 8 -42 13 -78 32 -206 196 -341 436 -357 68 -5 87 -9 87 -21 0 -13
-14 -14 -92 -9 -206 14 -354 100 -428 251 -30 60 -56 185 -46 213 7 17 26 17
30 1z m1774 -12 c25 -13 32 -23 32 -46 0 -38 -16 -73 -42 -89 -18 -11 -24 -9
-57 23 -36 35 -108 72 -119 62 -7 -7 -7 -7 56 -36 73 -33 80 -44 41 -64 l-32
-16 -37 40 c-20 22 -41 40 -47 40 -5 0 -17 25 -25 56 l-16 57 107 -5 c71 -4
118 -11 139 -22z m120 -133 c120 -120 132 -282 31 -396 -22 -26 -47 -47 -55
-47 -21 0 -18 7 24 58 50 60 65 99 64 166 -1 74 -34 145 -93 201 -45 42 -55
65 -28 65 6 0 31 -21 57 -47z m-820 10 c-122 -134 -142 -317 -48 -435 17 -20
30 -38 30 -40 0 -2 -16 -2 -35 0 -25 3 -42 -1 -55 -13 -18 -17 -21 -16 -52 2
-18 11 -66 32 -105 47 -71 27 -73 29 -102 89 -17 34 -33 75 -37 92 l-7 30 24
-18 c13 -9 50 -30 81 -47 l56 -29 32 57 c49 87 97 150 169 225 64 65 100 94
49 40z m-468 -186 c0 -7 -7 -22 -15 -33 -21 -28 -18 -37 17 -55 42 -20 44 -31
8 -51 -30 -17 -30 -18 -14 -43 20 -30 3 -34 -26 -5 -26 26 -25 35 3 55 22 16
22 16 3 30 -11 8 -23 15 -28 15 -15 0 -8 32 13 66 21 35 39 44 39 21z m112
-29 c-9 -9 -15 -9 -24 0 -9 9 -7 12 12 12 19 0 21 -3 12 -12z m1018 -45 c43
-48 63 -99 57 -140 -3 -18 -1 -35 4 -38 14 -10 11 -45 -5 -45 -8 0 -21 -3 -30
-6 -13 -5 -16 3 -16 47 0 61 -27 130 -68 172 -22 23 -24 29 -12 37 25 16 37
12 70 -27z m-73 -35 c96 -105 55 -251 -92 -326 -36 -19 -37 -21 -15 -22 63 -1
198 23 257 46 36 13 87 39 113 58 l47 34 21 -21 c43 -43 190 -30 208 18 4 10
12 7 29 -13 21 -24 21 -28 8 -48 -8 -13 -17 -57 -20 -99 -6 -75 -6 -76 -54
-119 -65 -58 -194 -120 -304 -147 -127 -30 -306 -30 -430 1 -168 41 -325 138
-386 236 -12 19 -23 33 -26 30 -8 -7 33 -80 76 -133 39 -50 39 -51 21 -68 -45
-40 -247 5 -349 78 -28 20 -53 32 -56 27 -4 -6 -20 -17 -36 -25 -27 -14 -32
-14 -51 0 -13 8 -30 15 -39 15 -21 0 -174 -96 -253 -159 l-62 -50 -50 24 c-27
14 -67 27 -90 31 -34 5 -45 2 -69 -18 l-28 -24 -21 20 c-18 18 -19 23 -7 32 9
7 16 39 19 86 4 66 2 78 -15 94 -19 19 -19 20 29 90 54 79 98 118 177 158 184
94 490 86 694 -16 35 -18 40 -18 56 -4 25 23 49 20 118 -18 37 -20 65 -30 71
-24 5 5 35 4 74 -3 55 -10 72 -9 114 5 90 30 166 114 143 158 -6 10 -27 19
-57 23 -47 7 -92 28 -92 44 0 4 44 11 98 14 53 3 115 13 137 21 55 20 68 19
92 -6z m663 -327 c64 -24 143 -83 169 -125 25 -39 26 -46 7 -46 -7 0 -21 11
-30 25 -26 39 -113 103 -167 122 -27 10 -49 23 -49 30 0 17 11 16 70 -6z
m-2524 -136 c35 -36 78 -66 124 -87 102 -48 92 -67 -15 -27 -63 23 -175 120
-175 150 0 10 3 19 6 19 3 0 30 -25 60 -55z m-674 -563 c8 -8 13 -38 13 -78 0
-52 -4 -68 -18 -79 -17 -13 -17 -15 8 -64 l25 -51 -43 0 c-42 0 -44 1 -64 48
l-21 47 -1 -47 -1 -48 -40 0 -40 0 0 146 0 146 85 -3 c51 -3 89 -9 97 -17z
m286 -99 c51 -194 50 -173 3 -173 -34 0 -41 3 -41 20 0 17 -7 20 -40 20 -33 0
-40 -3 -40 -20 0 -17 -7 -20 -41 -20 -29 0 -40 4 -37 13 3 6 20 72 39 145 l33
132 47 0 46 0 31 -117z m292 87 c0 -25 -4 -30 -25 -30 l-25 0 0 -115 0 -115
-40 0 -40 0 0 115 0 115 -30 0 c-25 0 -30 4 -30 23 0 13 3 27 7 30 3 4 46 7
95 7 l88 0 0 -30z m255 0 c0 -23 -4 -25 -47 -28 -46 -3 -48 -5 -48 -33 0 -27
2 -29 40 -29 36 0 40 -2 40 -25 0 -22 -4 -25 -40 -25 -38 0 -40 -2 -40 -30 0
-29 1 -30 50 -30 49 0 50 -1 50 -30 l0 -30 -90 0 -90 0 0 145 0 146 88 -3 c85
-3 87 -3 87 -28z m165 -115 l0 -145 -40 0 -40 0 0 145 0 145 40 0 40 0 0 -145z
m268 129 c21 -14 22 -23 22 -129 0 -139 -4 -145 -96 -145 -94 0 -104 13 -104
134 0 104 9 142 37 149 42 11 120 6 141 -9z m372 -61 c7 -43 16 -82 19 -88 3
-5 12 28 21 75 l15 85 38 3 c46 4 46 6 6 -160 l-31 -128 -46 0 -47 0 -33 138
c-17 75 -32 140 -32 145 0 4 17 7 39 7 l38 0 13 -77z m390 47 c0 -29 -2 -30
-45 -30 -43 0 -45 -1 -45 -30 0 -28 2 -30 40 -30 36 0 40 -2 40 -25 0 -22 -4
-25 -40 -25 -38 0 -40 -2 -40 -30 0 -29 2 -30 45 -30 43 0 45 -1 45 -30 l0
-30 -85 0 -85 0 0 145 0 145 85 0 85 0 0 -30z m272 12 c8 -8 13 -38 13 -78 0
-52 -4 -68 -18 -79 -17 -13 -17 -15 8 -64 l25 -51 -43 0 c-42 0 -44 1 -64 48
l-21 47 -1 -47 -1 -48 -40 0 -40 0 0 146 0 146 85 -3 c51 -3 89 -9 97 -17z
m282 -1 c10 -8 16 -29 16 -52 0 -39 0 -39 -40 -39 -36 0 -40 3 -40 24 0 28
-10 38 -28 27 -9 -5 -12 -33 -10 -92 2 -69 6 -84 20 -87 12 -2 17 5 20 25 3
24 8 28 41 31 37 3 37 3 37 -34 0 -57 -22 -74 -92 -74 -97 0 -98 1 -98 140 0
112 1 120 23 135 26 19 126 17 151 -4z m276 -11 c0 -29 -2 -30 -45 -30 -43 0
-45 -1 -45 -30 0 -28 2 -30 40 -30 36 0 40 -2 40 -25 0 -22 -4 -25 -40 -25
-38 0 -40 -2 -40 -30 0 -29 2 -30 45 -30 43 0 45 -1 45 -30 l0 -30 -85 0 -85
0 0 145 0 145 85 0 85 0 0 -30z m168 -87 l3 -112 42 -3 c38 -3 42 -6 45 -30
l3 -28 -85 0 -86 0 0 146 0 145 38 -3 37 -3 3 -112z m521 -15 c19 -73 36 -139
39 -145 3 -9 -8 -13 -36 -13 -31 0 -41 4 -45 20 -4 15 -14 20 -41 20 -29 0
-36 -4 -36 -20 0 -17 -7 -20 -41 -20 -47 0 -48 -21 3 173 l31 117 46 0 47 0
33 -132z m303 114 c17 -17 18 -146 1 -163 -6 -6 -32 -14 -57 -16 l-46 -6 0
-43 0 -44 -40 0 -40 0 0 146 0 146 85 -3 c51 -3 89 -9 97 -17z m276 2 c19 -13
22 -24 22 -83 0 -80 -9 -91 -75 -99 l-45 -5 0 -43 0 -44 -40 0 -40 0 0 145 0
145 78 0 c54 0 84 -5 100 -16z m-2668 -239 c0 -33 -2 -35 -35 -35 -33 0 -35 2
-35 35 0 33 2 35 35 35 33 0 35 -2 35 -35z m1810 0 c0 -34 -1 -35 -40 -35 -39
0 -40 1 -40 35 0 34 1 35 40 35 39 0 40 -1 40 -35z m-2593 -241 c15 -24 15
-29 2 -53 -11 -19 -24 -27 -52 -29 l-37 -3 0 55 0 56 35 0 c26 0 39 -6 52 -26z
m88 -29 c0 -42 -3 -55 -15 -55 -12 0 -15 13 -15 55 0 42 3 55 15 55 12 0 15
-13 15 -55z m124 40 c-1 -5 -10 -9 -20 -7 -10 2 -22 -6 -28 -16 -14 -27 9 -58
35 -47 12 5 15 9 7 12 -20 7 -15 23 7 23 23 0 27 -29 8 -48 -28 -28 -88 0 -88
41 0 30 30 58 57 55 13 -2 23 -7 22 -13z m96 -40 c0 -42 -3 -55 -15 -55 -12 0
-15 13 -15 55 0 42 3 55 15 55 12 0 15 -13 15 -55z m125 45 c0 -5 -7 -10 -15
-10 -11 0 -15 -12 -15 -45 0 -25 -4 -45 -10 -45 -5 0 -10 20 -10 45 0 33 -4
45 -15 45 -8 0 -15 5 -15 10 0 6 18 10 40 10 22 0 40 -4 40 -10z m136 -47 c18
-42 20 -53 8 -53 -8 0 -14 5 -14 10 0 6 -13 10 -30 10 -16 0 -30 -4 -30 -10 0
-5 -7 -10 -16 -10 -9 0 -14 3 -12 8 2 4 12 29 22 55 24 61 41 58 72 -10z m84
12 c0 -38 3 -45 20 -45 11 0 20 -4 20 -10 0 -5 -16 -10 -35 -10 l-35 0 0 55
c0 42 3 55 15 55 11 0 15 -12 15 -45z m219 30 c-1 -5 -10 -9 -21 -7 -29 5 -21
-15 12 -27 32 -11 39 -31 16 -51 -18 -14 -58 -10 -64 8 -3 9 3 11 22 6 33 -8
34 9 1 24 -24 11 -33 40 -18 56 11 10 54 3 52 -9z m139 -13 c3 -18 -3 -26 -27
-35 -19 -7 -31 -18 -31 -29 0 -10 -4 -18 -10 -18 -5 0 -10 25 -10 56 l0 55 38
-3 c30 -2 38 -7 40 -26z m62 -17 c0 -41 2 -45 25 -45 14 0 25 -4 25 -10 0 -5
-16 -10 -35 -10 l-35 0 0 55 c0 30 5 55 10 55 6 0 10 -20 10 -45z m125 -10 c0
-48 -2 -55 -20 -55 -18 0 -20 7 -20 55 0 48 2 55 20 55 18 0 20 -7 20 -55z
m125 45 c0 -5 -7 -10 -15 -10 -11 0 -15 -12 -15 -45 0 -33 -4 -45 -15 -45 -11
0 -15 12 -15 45 0 25 -4 45 -10 45 -5 0 -10 5 -10 10 0 6 18 10 40 10 22 0 40
-4 40 -10z m188 -2 c15 -15 16 -53 2 -79 -8 -13 -21 -19 -45 -19 l-35 0 0 55
0 55 33 0 c18 0 38 -5 45 -12z m153 -12 c16 -35 4 -74 -26 -82 -34 -8 -53 1
-67 30 -9 20 -8 30 6 51 23 34 72 35 87 1z m188 9 c-1 -5 -10 -9 -21 -7 -29 5
-21 -15 12 -27 32 -11 39 -31 16 -51 -18 -14 -58 -10 -64 8 -3 9 3 11 22 6 33
-8 34 9 1 24 -24 11 -33 40 -18 56 11 10 54 3 52 -9z m131 5 c0 -5 -11 -10
-25 -10 -14 0 -25 -4 -25 -10 0 -5 9 -10 20 -10 26 0 26 -16 -1 -23 -25 -7
-16 -27 12 -27 10 0 19 -4 19 -10 0 -5 -16 -10 -35 -10 l-35 0 0 55 0 55 35 0
c19 0 35 -4 35 -10z m70 -28 c0 -21 3 -42 7 -45 13 -13 33 16 33 49 0 19 5 34
10 34 14 0 12 -84 -2 -98 -7 -7 -21 -12 -33 -12 -32 0 -45 20 -45 67 0 32 4
43 15 43 11 0 15 -11 15 -38z m245 -3 c0 -20 6 -43 14 -52 12 -15 11 -17 -3
-17 -9 0 -21 9 -28 20 -7 11 -16 20 -20 20 -5 0 -8 -9 -8 -20 0 -11 -7 -20
-15 -20 -12 0 -15 13 -15 56 l0 55 38 -3 c35 -3 37 -5 37 -39z m161 16 c14
-21 15 -31 6 -51 -14 -29 -33 -38 -67 -30 -30 8 -42 47 -26 82 15 34 64 33 87
-1z m74 -20 c0 -41 2 -45 25 -45 14 0 25 -4 25 -10 0 -5 -16 -10 -35 -10 l-35
0 0 55 c0 30 5 55 10 55 6 0 10 -20 10 -45z m160 35 c0 -5 -11 -10 -25 -10
-14 0 -25 -4 -25 -10 0 -5 9 -10 20 -10 11 0 20 -4 20 -10 0 -5 -9 -10 -20
-10 -11 0 -20 -7 -20 -15 0 -9 9 -15 25 -15 14 0 25 -4 25 -10 0 -5 -16 -10
-35 -10 l-35 0 0 55 0 55 35 0 c19 0 35 -4 35 -10z"/>
<path d="M1707 3613 c-3 -5 9 -25 28 -43 19 -19 35 -29 35 -22 0 18 -56 76
-63 65z"/>
<path d="M2423 3349 c-13 -5 -23 -13 -23 -19 0 -12 38 -4 53 10 14 12 -6 18
-30 9z"/>
<path d="M1882 3316 c1 -10 8 -17 13 -17 15 1 12 24 -3 29 -9 3 -13 -2 -10
-12z"/>
<path d="M2122 3306 c1 -10 8 -17 13 -17 15 1 12 24 -3 29 -9 3 -13 -2 -10
-12z"/>
<path d="M2453 3309 c-24 -9 -31 -29 -10 -29 19 0 40 16 36 28 -3 6 -13 6 -26
1z"/>
<path d="M1927 3223 c-7 -16 -12 -36 -10 -45 5 -20 44 -34 68 -24 25 9 17 24
-10 18 -30 -5 -44 21 -27 49 15 23 15 29 2 29 -5 0 -16 -12 -23 -27z"/>
<path d="M1427 3324 c-8 -8 1 -24 14 -24 5 0 9 7 9 15 0 15 -12 20 -23 9z"/>
<path d="M2541 2976 c-7 -9 -21 -16 -31 -16 -29 0 -70 -46 -70 -78 0 -29 26
-62 48 -62 7 0 12 -15 12 -35 0 -41 -4 -42 -47 -15 -38 23 -39 22 -16 -25 13
-28 22 -35 46 -35 20 0 30 -6 34 -20 3 -11 11 -20 19 -20 8 0 11 7 8 18 -5 16
-5 16 6 0 14 -22 30 -23 30 -3 0 8 6 15 13 15 20 0 47 33 47 58 0 36 -22 71
-52 84 -29 13 -35 32 -18 58 8 12 13 13 30 2 18 -11 20 -10 20 17 0 16 -6 31
-15 35 -8 3 -15 13 -15 22 0 13 -3 14 -14 5 -11 -9 -15 -9 -18 0 -2 7 -8 6
-17 -5z m-31 -87 c0 -11 -4 -17 -10 -14 -5 3 -10 13 -10 21 0 8 5 14 10 14 6
0 10 -9 10 -21z m27 -21 c-3 -7 -5 -2 -5 12 0 14 2 19 5 13 2 -7 2 -19 0 -25z
m2 -108 c0 -10 -3 -8 -9 5 -12 27 -12 43 0 25 5 -8 9 -22 9 -30z m41 9 c0 -10
-4 -19 -10 -19 -5 0 -10 12 -10 26 0 14 4 23 10 19 6 -3 10 -15 10 -26z"/>
<path d="M2850 2799 c-15 -28 -7 -34 14 -10 11 12 13 21 7 25 -5 4 -15 -3 -21
-15z"/>
<path d="M2657 2623 c-15 -2 -25 -9 -22 -14 9 -14 49 -11 71 6 19 14 19 14 -1
13 -11 0 -32 -3 -48 -5z"/>
<path d="M2778 2612 c-10 -2 -18 -8 -18 -13 0 -13 27 -11 35 2 9 13 4 16 -17
11z"/>
<path d="M2554 2586 c22 -18 86 -22 86 -6 0 6 -15 10 -34 10 -19 0 -43 3 -53
6 -16 5 -16 4 1 -10z"/>
<path d="M2723 2563 c-44 -4 -56 -16 -26 -27 19 -8 83 11 83 25 0 5 -3 8 -7 7
-5 -1 -27 -3 -50 -5z"/>
<path d="M2237 2684 c-8 -8 1 -24 14 -24 5 0 9 7 9 15 0 15 -12 20 -23 9z"/>
<path d="M2275 2630 c-3 -6 1 -13 10 -16 19 -8 30 0 20 15 -8 14 -22 14 -30 1z"/>
<path d="M2332 2578 c6 -18 28 -21 28 -4 0 9 -7 16 -16 16 -9 0 -14 -5 -12
-12z"/>
<path d="M2900 2532 c0 -21 -94 -67 -160 -78 -65 -11 -65 -11 -27 -19 46 -9
92 -1 134 25 34 21 70 67 59 77 -3 3 -6 1 -6 -5z"/>
<path d="M2880 2420 c-8 -5 -37 -10 -65 -10 -44 -1 -47 -3 -25 -11 27 -11 94
3 105 21 8 12 4 12 -15 0z"/>
<path d="M420 1635 c0 -28 4 -35 20 -35 16 0 20 7 20 35 0 28 -4 35 -20 35
-16 0 -20 -7 -20 -35z"/>
<path d="M727 1613 c-2 -4 -8 -23 -12 -40 -6 -29 -4 -33 15 -33 19 0 20 4 14
38 -8 42 -10 47 -17 35z"/>
<path d="M1690 1585 c0 -78 2 -85 20 -85 18 0 20 7 20 85 0 78 -2 85 -20 85
-18 0 -20 -7 -20 -85z"/>
<path d="M2720 1635 c0 -28 4 -35 20 -35 16 0 20 7 20 35 0 28 -4 35 -20 35
-16 0 -20 -7 -20 -35z"/>
<path d="M3976 1589 c-9 -46 -8 -49 14 -49 17 0 19 5 13 33 -8 46 -19 53 -27
16z"/>
<path d="M4270 1630 c0 -33 3 -40 20 -40 17 0 20 7 20 40 0 33 -3 40 -20 40
-17 0 -20 -7 -20 -40z"/>
<path d="M4550 1630 c0 -33 3 -40 20 -40 17 0 20 7 20 40 0 33 -3 40 -20 40
-17 0 -20 -7 -20 -40z"/>
<path d="M1140 1205 c0 -29 3 -36 18 -33 11 2 17 13 17 33 0 20 -6 31 -17 33
-15 3 -18 -4 -18 -33z"/>
<path d="M1720 1210 c0 -5 5 -10 11 -10 5 0 7 5 4 10 -3 6 -8 10 -11 10 -2 0
-4 -4 -4 -10z"/>
<path d="M2150 1230 c0 -5 7 -10 15 -10 8 0 15 5 15 10 0 6 -7 10 -15 10 -8 0
-15 -4 -15 -10z"/>
<path d="M2650 1205 c0 -37 18 -47 40 -20 16 19 3 55 -21 55 -15 0 -19 -7 -19
-35z"/>
<path d="M2797 1234 c-13 -14 -7 -52 10 -58 25 -10 51 20 37 42 -12 19 -36 27
-47 16z"/>
<path d="M3450 1230 c0 -5 7 -10 15 -10 8 0 15 5 15 10 0 6 -7 10 -15 10 -8 0
-15 -4 -15 -10z"/>
<path d="M3592 1228 c-16 -16 -15 -33 2 -47 22 -18 48 -2 44 28 -3 28 -27 38
-46 19z"/>
</g>
</svg>
